# xmcd
#
# Track frame offsets: 
#        150
#        13481
#        26872
#        38872
#        51173
#        59416
#        69721
#        83683
#        97448
#        112769
#        120989
#        131577
#        142873
#        152902
#        163623
#        180841
#        195987
#
# Disc length: 3554 seconds
#
# Revision: 1
# Processed by: cddbd v1.5.2PL0 Copyright (c) Steve Scherf et al.
# Submitted via: ExactAudioCopyFreeDBPlugin 1.0
#
DISCID=e40de011
DTITLE=Varios Artistas - Big Boss Men - Road to the Blues
DYEAR=1900
DGENRE=Blues
TTITLE0=Earl Hooker Blues For Dancers
TTITLE1=Jimmy Reed Hard Walking Hanna
TTITLE2=Jimmy Reed Xmas Present Blues
TTITLE3=Big Joe Williams Blues On Decoration Day
TTITLE4=Big Joe Williams My Troubles
TTITLE5=Big Joe Williams What You Gonna Do For Me
TTITLE6=Lightnini' Hopkins War Is Starting Again
TTITLE7=Lightnin' Hopkins Louisiana Woman
TTITLE8=Homesick James Lonesome Road
TTITLE9=Homesick James The Woman I Love
TTITLE10=Rossevelt Sykes I'm Gonna Get Even With You
TTITLE11=Rossevelt Sykes Bird Nest On The Ground
TTITLE12=Roosevelt Sykes Bad News
TTITLE13=Rosevelt Sykes Hey Woman
TTITLE14=Jimmy Reed Cry Before I Go
TTITLE15=Jimmy Reed Down At The Corner Grocery Store
TTITLE16=Jimmy Reed Big Leg Woman
EXTD=
EXTT0=
EXTT1=
EXTT2=
EXTT3=
EXTT4=
EXTT5=
EXTT6=
EXTT7=
EXTT8=
EXTT9=
EXTT10=
EXTT11=
EXTT12=
EXTT13=
EXTT14=
EXTT15=
EXTT16=
PLAYORDER=
